<?xml version="1.0" standalone="no"?>
<!DOCTYPE svg PUBLIC "-//W3C//DTD SVG 20010904//EN"
 "http://www.w3.org/TR/2001/REC-SVG-20010904/DTD/svg10.dtd">
<svg version="1.0" xmlns="http://www.w3.org/2000/svg"
 width="298.000000pt" height="125.000000pt" viewBox="0 0 298.000000 125.000000"
 preserveAspectRatio="xMidYMid meet">
<metadata>
Created by potrace 1.15, written by Peter Selinger 2001-2017
</metadata>
<g transform="translate(0.000000,125.000000) scale(0.100000,-0.100000)"
fill="#000000" stroke="none">
<path d="M935 808 c-10 -32 -77 -360 -73 -363 1 -2 16 -5 32 -7 l29 -3 38 180
c22 99 39 186 39 193 0 7 -13 12 -30 12 -17 0 -32 -6 -35 -12z"/>
<path d="M1537 638 c-42 -204 -41 -198 -27 -198 22 0 44 59 76 207 19 87 34
161 34 166 0 4 -10 7 -23 7 -21 0 -24 -11 -60 -182z"/>
<path d="M1811 765 c-7 -33 -26 -118 -41 -190 -16 -71 -27 -132 -24 -134 2 -2
15 1 28 7 33 15 75 89 98 171 22 79 22 91 4 91 -22 0 -39 28 -46 73 l-6 42
-13 -60z"/>
<path d="M2495 798 c-7 -30 -75 -352 -75 -355 0 -2 13 -3 29 -3 16 0 31 -6 34
-14 9 -23 -35 -99 -70 -122 -38 -25 -28 -34 41 -34 50 0 79 23 106 83 21 47
17 67 -16 67 -31 0 -31 13 3 156 l27 114 90 0 c80 0 88 2 71 14 -19 13 -37 18
-117 31 -36 6 -37 7 -35 43 2 37 2 37 -40 40 -37 3 -43 0 -48 -20z"/>
<path d="M660 701 c-30 -44 -48 -91 -59 -159 -11 -72 -6 -102 20 -102 28 0 45
36 69 145 11 55 24 110 27 123 8 34 -31 29 -57 -7z"/>
<path d="M2234 713 c-35 -35 -67 -125 -72 -200 -4 -69 -3 -73 16 -73 33 0 52
40 78 162 13 62 24 116 24 121 0 13 -28 7 -46 -10z"/>
<path d="M1187 692 c-8 -9 -32 -98 -52 -197 -21 -99 -42 -186 -48 -193 -5 -6
-29 -12 -54 -12 -27 0 -42 -4 -38 -10 9 -15 170 -13 182 3 6 6 27 90 48 186
l39 174 -22 15 c-12 8 -22 20 -22 28 0 21 -16 25 -33 6z"/>
<path d="M1928 446 c-39 -80 -136 -155 -205 -157 -51 -1 6 -18 65 -18 62 -1
105 15 154 58 34 30 35 32 25 73 -18 81 -21 83 -39 44z"/>
</g>
</svg>
